<svg id="svg" version="1.1" xmlns="http://www.w3.org/2000/svg" viewBox="0 0 500 500" style="display: block;"><path d="M0 0 C165 0 330 0 500 0 C500 165 500 330 500 500 C335 500 170 500 0 500 C0 335 0 170 0 0 Z " transform="translate(0,0)" style="fill: #00579C;"/><path d="M0 0 C6.6 0 13.2 0 20 0 C22.24123073 7.86717724 24.0267919 15.71781065 25.5625 23.75 C27.05410318 31.87674692 27.05410318 31.87674692 29.12109375 39.8671875 C30.30435116 44.0848428 30.44008907 48.16779481 30.65625 52.5234375 C30.7696875 53.34070313 30.883125 54.15796875 31 55 C31.66 55.33 32.32 55.66 33 56 C32.67 55.01 32.34 54.02 32 53 C31.9121494 51.26654193 31.88235186 49.52986731 31.88647461 47.79418945 C31.88655014 46.73331619 31.88662567 45.67244293 31.88670349 44.579422 C31.89186478 43.43559555 31.89702606 42.2917691 31.90234375 41.11328125 C31.9037587 39.94113571 31.90517365 38.76899017 31.90663147 37.56132507 C31.91223612 33.81169093 31.92478944 30.06211615 31.9375 26.3125 C31.9425144 23.77278732 31.94707741 21.2330737 31.95117188 18.69335938 C31.96220706 12.46221665 31.97947485 6.2311184 32 0 C37.61 0 43.22 0 49 0 C49 31.02 49 62.04 49 94 C42.4 94 35.8 94 29 94 C28.54560547 91.76669922 28.54560547 91.76669922 28.08203125 89.48828125 C27.65950581 87.42955365 27.23627525 85.3709707 26.8125 83.3125 C26.59053955 82.2306543 26.3685791 81.14880859 26.13989258 80.03417969 C24.84181899 73.78700093 23.42572339 67.59064333 21.85888672 61.40576172 C19.7741275 53.15921234 18.20054701 45.58079546 19 37 C18.01 37 17.02 37 16 37 C16.24447876 38.37297241 16.24447876 38.37297241 16.49389648 39.77368164 C17.24172787 45.04147814 17.123571 50.31109827 17.09765625 55.62109375 C17.0962413 56.72099136 17.09482635 57.82088898 17.09336853 58.95411682 C17.08779503 62.44860617 17.07524739 65.94303019 17.0625 69.4375 C17.05748158 71.8144522 17.05291927 74.1914054 17.04882812 76.56835938 C17.03783428 82.37893122 17.02058792 88.18945455 17 94 C11.72 94 6.44 94 1 94 C0.20211438 82.136628 -0.13688481 70.38257123 -0.09765625 58.49609375 C-0.09578446 56.79403221 -0.09436417 55.09197012 -0.09336853 53.38990784 C-0.08960311 48.97273189 -0.07982611 44.55559035 -0.06866455 40.13842773 C-0.05831973 35.60596176 -0.0538433 31.07349007 -0.04882812 26.54101562 C-0.03819662 17.69399309 -0.02065053 8.84700483 0 0 Z " transform="translate(257,200)" style="fill: #F9FBFC;"/><path d="M0 0 C5.61 0 11.22 0 17 0 C17 12.87 17 25.74 17 39 C20.3 39 23.6 39 27 39 C27 26.13 27 13.26 27 0 C32.61 0 38.22 0 44 0 C44 31.02 44 62.04 44 94 C38.39 94 32.78 94 27 94 C27 80.8 27 67.6 27 54 C23.7 54 20.4 54 17 54 C17 67.2 17 80.4 17 94 C11.39 94 5.78 94 0 94 C0 62.98 0 31.96 0 0 Z " transform="translate(156,200)" style="fill: #FAFCFD;"/><path d="M0 0 C5.47976255 2.85233909 9.06828281 7.70484842 11 13.5 C11.07973476 14.83525717 11.10771338 16.17412083 11.09765625 17.51171875 C11.09515869 18.19451904 11.09266113 18.87731934 11.09008789 19.58081055 C11.08098389 20.44101807 11.07187988 21.30122559 11.0625 22.1875 C11.041875 24.930625 11.02125 27.67375 11 30.5 C5.39 30.5 -0.22 30.5 -6 30.5 C-6.1953125 26.91927083 -6.390625 23.33854167 -6.5859375 19.7578125 C-6.67241106 16.41938301 -6.67241106 16.41938301 -9 14.5 C-11.54190002 14.2499227 -11.54190002 14.2499227 -14 14.5 C-15.77916467 16.27916467 -15.12764835 18.88313299 -15.12939453 21.2890625 C-15.13254669 22.5270459 -15.13569885 23.7650293 -15.13894653 25.04052734 C-15.13715675 26.40201859 -15.1351058 27.76350951 -15.1328125 29.125 C-15.13348559 30.51123064 -15.13445566 31.89746117 -15.13571167 33.28369141 C-15.1371884 36.19239422 -15.1350349 39.10106637 -15.13037109 42.00976562 C-15.12467381 45.74596598 -15.12795294 49.48209452 -15.13394356 53.21829224 C-15.13754985 56.08179266 -15.13641027 58.94527593 -15.13381577 61.80877686 C-15.13314668 63.18674732 -15.13397426 64.56471932 -15.13629532 65.94268799 C-15.13882292 67.86543754 -15.13429024 69.78819252 -15.12939453 71.7109375 C-15.12859894 72.80712402 -15.12780334 73.90331055 -15.12698364 75.03271484 C-15.27904235 77.44423351 -15.27904235 77.44423351 -14 78.5 C-10.535 78.005 -10.535 78.005 -7 77.5 C-6.67 69.25 -6.34 61 -6 52.5 C-7.65 52.5 -9.3 52.5 -11 52.5 C-11 47.88 -11 43.26 -11 38.5 C-3.74 38.5 3.52 38.5 11 38.5 C11 56.65 11 74.8 11 93.5 C7.04 93.5 3.08 93.5 -1 93.5 C-1.33 91.85 -1.66 90.2 -2 88.5 C-2.78375 89.304375 -3.5675 90.10875 -4.375 90.9375 C-8.75902306 95.21714156 -12.07829657 94.77556654 -18.015625 94.71875 C-22.78545856 94.36912869 -25.56518235 92.61596929 -29.25 89.75 C-32.90472673 85.05106563 -33.25157884 79.44458334 -33.2746582 73.66601562 C-33.28419022 72.3477478 -33.29372223 71.02947998 -33.30354309 69.67126465 C-33.30328166 68.24959282 -33.30234458 66.82792099 -33.30078125 65.40625 C-33.30467398 63.9308663 -33.30900983 62.45548371 -33.31376648 60.98010254 C-33.32120279 57.89701697 -33.3209558 54.81404598 -33.31567383 51.73095703 C-33.30987504 47.79358228 -33.32683227 43.8566773 -33.3500185 39.91938019 C-33.36479627 36.87548107 -33.3656222 33.83169415 -33.36250877 30.7877655 C-33.36301971 29.33659432 -33.36821438 27.88541648 -33.37832069 26.4342804 C-33.47490073 10.63231439 -33.47490073 10.63231439 -27.6875 3.75 C-19.82839416 -2.82971652 -9.53777583 -3.64346275 0 0 Z " transform="translate(346,200.5)" style="fill: #F8FAFC;"/><path d="M0 0 C8.58 0 17.16 0 26 0 C27.25849631 5.66323341 28.31464677 10.73138052 28.9296875 16.41015625 C29.00484085 17.08755859 29.0799942 17.76496094 29.15742493 18.46289062 C29.40088043 20.66231511 29.63791191 22.86238093 29.875 25.0625 C30.21964356 28.198254 30.56820834 31.33356294 30.91796875 34.46875 C31.006194 35.262173 31.09441925 36.05559601 31.18531799 36.87306213 C31.78089751 42.18224832 32.42659801 47.48311014 33.11328125 52.78125 C33.20365662 53.47882919 33.29403198 54.17640839 33.387146 54.89512634 C33.56616788 56.27473169 33.74528426 57.65432479 33.92449951 59.03390503 C35.43686524 70.6991971 36.5800487 82.24136358 37 94 C31.06 94 25.12 94 19 94 C18.18863712 86.29205268 17.87829702 78.74842287 18 71 C13.05 71.495 13.05 71.495 8 72 C7.34 79.26 6.68 86.52 6 94 C0.39 94 -5.22 94 -11 94 C-10.5442098 81.92155973 -9.16849334 70.11898266 -7.51269531 58.1484375 C-6.55826483 51.2309739 -5.66568986 44.32611326 -5 37.375 C-3.78983817 24.859492 -1.82017934 12.43789216 0 0 Z " transform="translate(216,200)" style="fill: #F6F9FB;"/><path d="M0 0 C4.54855559 4.7349718 6.13100936 8.19115531 6.09765625 14.76171875 C6.09443359 15.87998047 6.09121094 16.99824219 6.08789062 18.15039062 C6.07532227 19.90125977 6.07532227 19.90125977 6.0625 21.6875 C6.05798828 22.86634766 6.05347656 24.04519531 6.04882812 25.25976562 C6.03703285 28.17319867 6.01909727 31.08660567 6 34 C0.39 34 -5.22 34 -11 34 C-11.06058594 32.50726563 -11.12117188 31.01453125 -11.18359375 29.4765625 C-11.26799173 27.52603138 -11.3526401 25.57551108 -11.4375 23.625 C-11.47681641 22.64015625 -11.51613281 21.6553125 -11.55664062 20.640625 C-11.59853516 19.69960937 -11.64042969 18.75859375 -11.68359375 17.7890625 C-11.72025146 16.91975098 -11.75690918 16.05043945 -11.79467773 15.15478516 C-11.87401544 12.9516738 -11.87401544 12.9516738 -13 11 C-14.99954746 10.95745644 -17.00041636 10.95919217 -19 11 C-20.28510776 12.06094586 -20.28510776 12.06094586 -20.12025452 14.51197815 C-20.11803391 15.62894577 -20.11581329 16.74591339 -20.11352539 17.89672852 C-20.11341209 19.78857628 -20.11341209 19.78857628 -20.11329651 21.71864319 C-20.1081891 23.10539794 -20.10297309 24.49215229 -20.09765625 25.87890625 C-20.09579201 27.28995209 -20.09436814 28.70099857 -20.09336853 30.11204529 C-20.08954379 33.83240535 -20.0797139 37.5527266 -20.06866455 41.27307129 C-20.05844948 45.06680781 -20.05387071 48.86055058 -20.04882812 52.65429688 C-20.03809158 60.10288231 -20.0210157 67.55143572 -20 75 C-17.36 75 -14.72 75 -12 75 C-11.67 66.75 -11.34 58.5 -11 50 C-5.39 50 0.22 50 6 50 C6.10839984 54.16737178 6.18752306 58.3318954 6.25 62.5 C6.28351563 63.67304688 6.31703125 64.84609375 6.3515625 66.0546875 C6.43730598 73.68585733 6.08858308 79.72807857 0.55175781 85.51318359 C-6.00134492 91.26416015 -11.77891233 91.52013314 -20.1328125 91.3125 C-26.46595491 90.80073092 -29.6215156 88.71785101 -33.8125 84 C-37.31596341 79.19525018 -38.25161177 76.42812435 -38.29052734 70.41479492 C-38.29724457 69.76221207 -38.30396179 69.10962921 -38.31088257 68.43727112 C-38.3298429 66.28492566 -38.33378596 64.13289247 -38.3359375 61.98046875 C-38.34236774 60.47837701 -38.34909627 58.97628652 -38.35610962 57.47419739 C-38.36807812 54.32611184 -38.37179099 51.17813598 -38.37060547 48.0300293 C-38.37040251 44.0083835 -38.39768137 39.98744624 -38.43214989 35.96596813 C-38.45445931 32.86286734 -38.45844176 29.75993583 -38.45738602 26.65676308 C-38.45973679 25.17487463 -38.46853078 23.69298114 -38.48405075 22.2111721 C-38.56954466 13.20372541 -38.32364085 7.18626506 -32.39453125 0.07421875 C-23.2895402 -7.90669933 -9.29816992 -8.16424676 0 0 Z " transform="translate(143,204)" style="fill: #F7FAFC;"/><path d="M0 0 C10.56 0 21.12 0 32 0 C32 5.28 32 10.56 32 16 C27.05 16 22.1 16 17 16 C17 23.59 17 31.18 17 39 C21.62 39 26.24 39 31 39 C31 43.95 31 48.9 31 54 C26.38 54 21.76 54 17 54 C17 62.25 17 70.5 17 79 C21.95 79 26.9 79 32 79 C32 83.95 32 88.9 32 94 C21.44 94 10.88 94 0 94 C0 62.98 0 31.96 0 0 Z " transform="translate(364,200)" style="fill: #F2F6FA;"/><path d="M0 0 C2.31 0 4.62 0 7 0 C7 44.88 7 89.76 7 136 C-37.55 136 -82.1 136 -128 136 C-128 133.36 -128 130.72 -128 128 C-85.76 128 -43.52 128 0 128 C0 85.76 0 43.52 0 0 Z " transform="translate(425,291)" style="fill: #F0F5F9;"/><path d="M0 0 C44.55 0 89.1 0 135 0 C135 2.31 135 4.62 135 7 C92.76 7 50.52 7 7 7 C7 49.24 7 91.48 7 135 C4.69 135 2.38 135 0 135 C0 90.45 0 45.9 0 0 Z " transform="translate(68,77)" style="fill: #FFFFFF;"/><path d="M0 0 C5.61 0 11.22 0 17 0 C17 31.02 17 62.04 17 94 C16.67 94 16.34 94 16 94 C15.67 82.12 15.34 70.24 15 58 C12.53729712 61.69405432 12.77014583 63.63277072 13 68 C13.185625 68.721875 13.37125 69.44375 13.5625 70.1875 C14.10523427 72.43597054 13.63799298 73.80246863 13 76 C13 76.99 13 77.98 13 79 C10.5625 77.875 10.5625 77.875 8 76 C7.3125 72.875 7.3125 72.875 7 70 C6.34 69.67 5.68 69.34 5 69 C5.99 69 6.98 69 8 69 C8.33 70.65 8.66 72.3 9 74 C9.99 73.505 9.99 73.505 11 73 C11 70.36 11 67.72 11 65 C10.01 64.67 9.02 64.34 8 64 C8 63.01 8 62.02 8 61 C7.01 60.67 6.02 60.34 5 60 C5.99 59.34 6.98 58.68 8 58 C7.01 56.68 6.02 55.36 5 54 C3.68 54.66 2.36 55.32 1 56 C-0.00951397 52.9714581 -0.121045 50.95994658 -0.11352539 47.79418945 C-0.11344986 46.73331619 -0.11337433 45.67244293 -0.11329651 44.579422 C-0.10813522 43.43559555 -0.10297394 42.2917691 -0.09765625 41.11328125 C-0.0962413 39.94113571 -0.09482635 38.76899017 -0.09336853 37.56132507 C-0.08776388 33.81169093 -0.07521056 30.06211615 -0.0625 26.3125 C-0.0574856 23.77278732 -0.05292259 21.2330737 -0.04882812 18.69335938 C-0.03779294 12.46221665 -0.02052515 6.2311184 0 0 Z " transform="translate(289,200)" style="fill: #D5E3EE;"/><path d="M0 0 C3.63 0 7.26 0 11 0 C13.31 8.58 15.62 17.16 18 26 C18.33 17.42 18.66 8.84 19 0 C21.31 0 23.62 0 26 0 C26 16.83 26 33.66 26 51 C23.36 51 20.72 51 18 51 C14.42961755 40.85259726 11.6083193 30.43327721 9 20 C8.67 30.23 8.34 40.46 8 51 C5.36 51 2.72 51 0 51 C0 34.17 0 17.34 0 0 Z " transform="translate(207,138)" style="fill: #F4F7FA;"/><path d="M0 0 C3.63 0 7.26 0 11 0 C13.31 8.58 15.62 17.16 18 26 C18.33 17.42 18.66 8.84 19 0 C21.31 0 23.62 0 26 0 C26 16.83 26 33.66 26 51 C23.36 51 20.72 51 18 51 C14.42961755 40.85259726 11.6083193 30.43327721 9 20 C8.67 30.23 8.34 40.46 8 51 C5.36 51 2.72 51 0 51 C0 34.17 0 17.34 0 0 Z " transform="translate(133,138)" style="fill: #F4F7FA;"/><path d="M0 0 C17 0 17 0 22 3 C24.37987325 6.28580687 24.29871287 9.46221059 24.3125 13.4375 C24.33763672 15.10619141 24.33763672 15.10619141 24.36328125 16.80859375 C23.96457861 20.31117499 23.13675989 22.21857289 21 25 C20.34 25 19.68 25 19 25 C19 25.66 19 26.32 19 27 C19.639375 27.268125 20.27875 27.53625 20.9375 27.8125 C23 29 23 29 24 32 C24.14573058 33.47965926 24.24663268 34.96403843 24.31640625 36.44921875 C24.35830078 37.29677734 24.40019531 38.14433594 24.44335938 39.01757812 C24.48267578 39.89865234 24.52199219 40.77972656 24.5625 41.6875 C24.60568359 42.58017578 24.64886719 43.47285156 24.69335938 44.39257812 C24.7993522 46.59487344 24.90017221 48.79741662 25 51 C22.03 51 19.06 51 16 51 C15.92652344 49.08574219 15.92652344 49.08574219 15.8515625 47.1328125 C15.77653809 45.46351928 15.70099012 43.79424954 15.625 42.125 C15.5940625 41.28324219 15.563125 40.44148438 15.53125 39.57421875 C15.49257813 38.76855469 15.45390625 37.96289062 15.4140625 37.1328125 C15.3826416 36.38918457 15.3512207 35.64555664 15.31884766 34.87939453 C15.14580449 32.75989026 15.14580449 32.75989026 13 31 C11.35 30.67 9.7 30.34 8 30 C8 36.93 8 43.86 8 51 C5.36 51 2.72 51 0 51 C0 34.17 0 17.34 0 0 Z " transform="translate(293,138)" style="fill: #F8FAFC;"/><path d="M0 0 C3.3 0 6.6 0 10 0 C11.68207509 4.92046266 13.16997165 9.88426242 14.625 14.875 C15.40875 17.55625 16.1925 20.2375 17 23 C17.33 15.41 17.66 7.82 18 0 C20.31 0 22.62 0 25 0 C25 16.83 25 33.66 25 51 C22.36 51 19.72 51 17 51 C13.80192395 40.04792952 10.87991355 29.03966859 8 18 C7.67 28.89 7.34 39.78 7 51 C4.69 51 2.38 51 0 51 C0 34.17 0 17.34 0 0 Z " transform="translate(336,138)" style="fill: #FAFCFD;"/><path d="M0 0 C0.33 0.66 0.66 1.32 1 2 C4.11785113 2.35355339 4.11785113 2.35355339 6 0 C6.66 0.66 7.32 1.32 8 2 C8.99 1.67 9.98 1.34 11 1 C11.05422947 2.4370809 11.09289723 3.87475462 11.125 5.3125 C11.14820313 6.11300781 11.17140625 6.91351563 11.1953125 7.73828125 C11 10 11 10 9 13 C9.66 13 10.32 13 11 13 C10.814375 13.70125 10.62875 14.4025 10.4375 15.125 C9.94843024 18.33888698 10.33768442 20.83560336 11 24 C9.02 24.99 9.02 24.99 7 26 C7.33 26.99 7.66 27.98 8 29 C7.5625 31.1875 7.5625 31.1875 7 33 C7.66 33 8.32 33 9 33 C8.505 31.515 8.505 31.515 8 30 C8.66 29.34 9.32 28.68 10 28 C13.125 28.375 13.125 28.375 16 29 C15.67 28.01 15.34 27.02 15 26 C18 25 18 25 20 26 C20 26.66 20 27.32 20 28 C22.31 27.01 24.62 26.02 27 25 C27 26.98 27 28.96 27 31 C25.33333333 31 23.66666667 31 22 31 C22 32.32 22 33.64 22 35 C20.68 34.67 19.36 34.34 18 34 C18.99 33.505 18.99 33.505 20 33 C16.79604584 33 14.90600261 33.74335022 12 35 C12.33 35.99 12.66 36.98 13 38 C12.9493857 39.70483784 12.8269541 41.40805532 12.66015625 43.10546875 C12.5199707 44.57983398 12.5199707 44.57983398 12.37695312 46.08398438 C12.27318359 47.10814453 12.16941406 48.13230469 12.0625 49.1875 C11.96259766 50.22326172 11.86269531 51.25902344 11.75976562 52.32617188 C11.51216918 54.88466852 11.25681997 57.44241274 11 60 C5.39 60 -0.22 60 -6 60 C-5.54158913 47.85211203 -4.17077543 35.9867121 -2.45996094 23.95068359 C-1.33885228 15.97614341 -0.51307632 8.0370705 0 0 Z " transform="translate(211,234)" style="fill: #F3F7FA;"/><path d="M0 0 C3.4480321 1.23608698 5.41819999 2.36001999 7.875 5.0625 C9.5205929 9.3593259 9.23842312 13.45229981 9 18 C6.36 18 3.72 18 1 18 C0.67 15.03 0.34 12.06 0 9 C-1.65614657 8.61781233 -3.32457024 8.28604898 -5 8 C-6.39523855 9.16748999 -6.39523855 9.16748999 -6.11352539 12.41821289 C-6.11336628 13.93636988 -6.10767226 15.45453229 -6.09765625 16.97265625 C-6.09553383 18.16912025 -6.09553383 18.16912025 -6.09336853 19.38975525 C-6.08775316 21.94737435 -6.07519812 24.50490718 -6.0625 27.0625 C-6.05748698 28.79231645 -6.05292373 30.52213426 -6.04882812 32.25195312 C-6.03777875 36.50133553 -6.02050386 40.75065312 -6 45 C-4.02 45 -2.04 45 0 45 C0.33 40.38 0.66 35.76 1 31 C-0.32 31 -1.64 31 -3 31 C-3 28.36 -3 25.72 -3 23 C0.96 23 4.92 23 9 23 C9.08127476 26.20884784 9.14063141 29.41561761 9.1875 32.625 C9.21263672 33.52863281 9.23777344 34.43226563 9.26367188 35.36328125 C9.32170298 40.6634551 9.09526462 44.47882696 6 49 C3.0192679 51.97443034 0.72220024 52.45384521 -3.4375 52.5 C-7.5562031 52.39552022 -8.70499978 52.21830016 -12.125 49.6875 C-16.44687896 43.49280683 -15.29915165 35.57562578 -15.35009766 28.29516602 C-15.36664923 26.56195643 -15.39392909 24.82881489 -15.43212891 23.09594727 C-15.487073 20.58834679 -15.50879606 18.08234115 -15.5234375 15.57421875 C-15.54610687 14.80526779 -15.56877625 14.03631683 -15.59213257 13.24406433 C-15.57631414 9.18887282 -15.18513707 6.73056491 -12.59228516 3.52661133 C-8.61175513 -0.3530746 -5.40518793 -0.55360398 0 0 Z " transform="translate(382,137)" style="fill: #F4F8FB;"/><path d="M0 0 C3.0418227 1.58401971 5.48823758 3.52906609 6.65234375 6.875 C7.03375674 9.20633336 7.09722419 11.38875478 7.0625 13.75 C7.05347656 14.54921875 7.04445312 15.3484375 7.03515625 16.171875 C7.02355469 16.77515625 7.01195312 17.3784375 7 18 C4.36 18 1.72 18 -1 18 C-1.33 15.03 -1.66 12.06 -2 9 C-3.98 9 -5.96 9 -8 9 C-8.0246519 13.82380802 -8.04283693 18.64757967 -8.05493164 23.47143555 C-8.05997174 25.11369464 -8.06680378 26.75594923 -8.07543945 28.39819336 C-8.08751926 30.75375479 -8.09323139 33.10925709 -8.09765625 35.46484375 C-8.10281754 36.20339096 -8.10797882 36.94193817 -8.11329651 37.7028656 C-8.1134925 39.46898088 -8.06194719 41.23497146 -8 43 C-6.64644661 44.58925565 -6.64644661 44.58925565 -2 44 C-1.67 39.71 -1.34 35.42 -1 31 C-1.99 31 -2.98 31 -4 31 C-4 28.36 -4 25.72 -4 23 C-0.37 23 3.26 23 7 23 C7.10825949 26.54249117 7.18744405 30.08165249 7.25 33.625 C7.30027344 35.12353516 7.30027344 35.12353516 7.3515625 36.65234375 C7.43256035 42.76768171 7.14794175 46.37581308 3 51 C-1.19603586 53.09801793 -6.44185319 52.54697762 -11 52 C-14.71987105 49.37420867 -16.23803291 47.39763862 -17 43 C-17.12986511 40.37941167 -17.21161095 37.78567801 -17.23828125 35.1640625 C-17.246353 34.40709076 -17.25442474 33.65011902 -17.26274109 32.87020874 C-17.27654217 31.27156845 -17.28728202 29.67289918 -17.29516602 28.07421875 C-17.30669729 26.44489872 -17.32716744 24.8156168 -17.35668945 23.18652344 C-17.39946388 20.82461036 -17.41554602 18.46381529 -17.42578125 16.1015625 C-17.44328934 15.37949615 -17.46079742 14.65742981 -17.47883606 13.91348267 C-17.45707935 8.80174236 -16.20505372 5.9401749 -13 2 C-9.01688911 -0.71575742 -4.65664411 -0.79759129 0 0 Z " transform="translate(181,137)" style="fill: #F6F9FB;"/><path d="M0 0 C6.6 0 13.2 0 20 0 C22.3351147 7.96061828 23.88932812 15.7810281 25 24 C23.68 24 22.36 24 21 24 C20.34 24.66 19.68 25.32 19 26 C20.65 26.33 22.3 26.66 24 27 C24 27.99 24 28.98 24 30 C23.34 30 22.68 30 22 30 C21.67 30.66 21.34 31.32 21 32 C19.109375 32.38671875 19.109375 32.38671875 16.75 32.6875 C12.86356719 33.43751335 11.21103056 34.36867525 8.9375 37.625 C8.298125 38.73875 7.65875 39.8525 7 41 C5.0625 40.1875 5.0625 40.1875 3 39 C2.505 37.515 2.505 37.515 2 36 C1.67 49.2 1.34 62.4 1 76 C0.67 76 0.34 76 0 76 C0 50.92 0 25.84 0 0 Z " transform="translate(257,200)" style="fill: #E5EEF5;"/><path d="M0 0 C7.26 0 14.52 0 22 0 C22 2.64 22 5.28 22 8 C17.71 8 13.42 8 9 8 C9 12.62 9 17.24 9 22 C12.63 22 16.26 22 20 22 C20 24.64 20 27.28 20 30 C16.04 30 12.08 30 8 30 C8 34.95 8 39.9 8 45 C12.62 45 17.24 45 22 45 C22 47.31 22 49.62 22 52 C14.74 52 7.48 52 0 52 C0 34.84 0 17.68 0 0 Z " transform="translate(106,137)" style="fill: #ECF2F7;"/><path d="M0 0 C7.26 0 14.52 0 22 0 C22 2.31 22 4.62 22 7 C17.38 7 12.76 7 8 7 C8 11.62 8 16.24 8 21 C11.63 21 15.26 21 19 21 C19 23.64 19 26.28 19 29 C15.37 29 11.74 29 8 29 C8 33.95 8 38.9 8 44 C12.62 44 17.24 44 22 44 C22 46.31 22 48.62 22 51 C14.74 51 7.48 51 0 51 C0 34.17 0 17.34 0 0 Z " transform="translate(266,138)" style="fill: #F7FAFC;"/><path d="M0 0 C7.26 0 14.52 0 22 0 C22 2.31 22 4.62 22 7 C17.38 7 12.76 7 8 7 C8 11.62 8 16.24 8 21 C11.63 21 15.26 21 19 21 C19 23.64 19 26.28 19 29 C15.37 29 11.74 29 8 29 C8 33.95 8 38.9 8 44 C12.62 44 17.24 44 22 44 C22 46.31 22 48.62 22 51 C14.74 51 7.48 51 0 51 C0 34.17 0 17.34 0 0 Z " transform="translate(239,138)" style="fill: #F7FAFC;"/><path d="M0 0 C39.93 0 79.86 0 121 0 C121 1.65 121 3.3 121 5 C81.07 5 41.14 5 0 5 C0 3.35 0 1.7 0 0 Z " transform="translate(191,307)" style="fill: #FEFEFE;"/><path d="M0 0 C5.28 0 10.56 0 16 0 C16 13.2 16 26.4 16 40 C14.35 39.67 12.7 39.34 11 39 C10.505 37.515 10.505 37.515 10 36 C10.99 35.505 10.99 35.505 12 35 C11.505 34.071875 11.01 33.14375 10.5 32.1875 C9 29 9 29 9 26 C7.02 26 5.04 26 3 26 C2.67 27.65 2.34 29.3 2 31 C1.34 30.67 0.68 30.34 0 30 C0 20.1 0 10.2 0 0 Z " transform="translate(289,200)" style="fill: #F9FBFC;"/><path d="M0 0 C8 0 8 0 9 1 C9.09333705 2.59610982 9.11745372 4.19633428 9.11352539 5.79516602 C9.11344986 6.81614883 9.11337433 7.83713165 9.11329651 8.88905334 C9.10813522 9.9994548 9.10297394 11.10985626 9.09765625 12.25390625 C9.0962413 13.38448959 9.09482635 14.51507294 9.09336853 15.67991638 C9.08775019 19.30747065 9.07519458 22.93496424 9.0625 26.5625 C9.05748736 29.01497307 9.05292405 31.4674471 9.04882812 33.91992188 C9.0377748 39.94663545 9.02101884 45.97331339 9 52 C6.03 52 3.06 52 0 52 C0 34.84 0 17.68 0 0 Z " transform="translate(193,137)" style="fill: #E2EBF3;"/><path d="M0 0 C1.485 0.99 1.485 0.99 3 2 C3.1875 5.125 3.1875 5.125 3 8 C4.32 7.67 5.64 7.34 7 7 C6.67 8.32 6.34 9.64 6 11 C6.66 11 7.32 11 8 11 C7.67 12.65 7.34 14.3 7 16 C8.98 15.67 10.96 15.34 13 15 C13 15.66 13 16.32 13 17 C13.66 17 14.32 17 15 17 C15 18.32 15 19.64 15 21 C15.66 21.66 16.32 22.32 17 23 C17.33 23.33 17.66 23.66 18 24 C19.99958364 24.04080783 22.00045254 24.04254356 24 24 C24 20.7 24 17.4 24 14 C26.31 14 28.62 14 31 14 C31 18.95 31 23.9 31 29 C20.77 29 10.54 29 0 29 C0 19.43 0 9.86 0 0 Z " transform="translate(365,265)" style="fill: #FAFCFD;"/><path d="M0 0 C2.64 0 5.28 0 8 0 C8 16.83 8 33.66 8 51 C5.36 51 2.72 51 0 51 C0 34.17 0 17.34 0 0 Z " transform="translate(322,138)" style="fill: #F9FBFC;"/><path d="M0 0 C0.33 0 0.66 0 1 0 C1.33 5.28 1.66 10.56 2 16 C3.65 14.68 5.3 13.36 7 12 C7.98120464 15.05263664 7.98120464 16.94736336 7 20 C10.44708859 22.09506252 10.44708859 22.09506252 14 24 C14 25.32 14 26.64 14 28 C14.99 28.33 15.98 28.66 17 29 C17 29.66 17 30.32 17 31 C17.99 31.33 18.98 31.66 20 32 C20 32.66 20 33.32 20 34 C17.69 34.99 15.38 35.98 13 37 C13.33 39.31 13.66 41.62 14 44 C13.34 43.34 12.68 42.68 12 42 C10.68 42 9.36 42 8 42 C6 42 6 42 4 40 C3.34 40 2.68 40 2 40 C1.67 41.98 1.34 43.96 1 46 C0.67 46 0.34 46 0 46 C0 30.82 0 15.64 0 0 Z " transform="translate(364,214)" style="fill: #E3ECF4;"/><path d="M0 0 C0.99 0 1.98 0 3 0 C5.38776806 28.15153143 5.38776806 28.15153143 5 40 C2.69 40 0.38 40 -2 40 C-1.41589996 26.66148389 -0.77340727 13.3289338 0 0 Z " transform="translate(227,217)" style="fill: #1363A3;"/><path d="M0 0 C2.3431213 0.25561323 4.67843403 0.59270772 7 1 C7.33 1.66 7.66 2.32 8 3 C10.23570226 3.23570226 10.23570226 3.23570226 12 1 C12 2.32 12 3.64 12 5 C11.34 5 10.68 5 10 5 C10 6.0725 10 7.145 10 8.25 C10 10.83333333 10 13.41666667 10 16 C9.34 16.33 8.68 16.66 8 17 C8 17.66 8 18.32 8 19 C6.68 19 5.36 19 4 19 C3.67 19.66 3.34 20.32 3 21 C2.33333333 18.33333333 1.66666667 15.66666667 1 13 C0.67 22.24 0.34 31.48 0 41 C-0.33 41 -0.66 41 -1 41 C-1.02485249 36.28605527 -1.04293186 31.5721493 -1.05493164 26.8581543 C-1.05993805 25.25691055 -1.06674515 23.65567133 -1.07543945 22.05444336 C-1.08766764 19.74331542 -1.09326536 17.43224831 -1.09765625 15.12109375 C-1.10281754 14.41351425 -1.10797882 13.70593475 -1.11329651 12.97691345 C-1.11378966 8.53591829 -0.72076256 4.36697315 0 0 Z " transform="translate(365,253)" style="fill: #E3ECF4;"/><path d="M0 0 C0.33 0 0.66 0 1 0 C1.33 5.28 1.66 10.56 2 16 C3.65 14.68 5.3 13.36 7 12 C7.98120464 15.05263664 7.98120464 16.94736336 7 20 C10.44708859 22.09506252 10.44708859 22.09506252 14 24 C14 24.66 14 25.32 14 26 C9.52941176 30 9.52941176 30 7 30 C6.67 30.66 6.34 31.32 6 32 C5.67 31.01 5.34 30.02 5 29 C4.34 28.67 3.68 28.34 3 28 C3 27.34 3 26.68 3 26 C2.67 26 2.34 26 2 26 C1.67 32.6 1.34 39.2 1 46 C0.67 46 0.34 46 0 46 C0 30.82 0 15.64 0 0 Z " transform="translate(364,214)" style="fill: #C4D8E8;"/><path d="M0 0 C3 0.4375 3 0.4375 4.875 2 C6.42190908 5.35163635 6.39126176 7.78572358 6 11.4375 C4.875 13.875 4.875 13.875 3 15.4375 C0 15.875 0 15.875 -3 15.4375 C-5.14931513 13.82803632 -5.90631341 12.9445098 -6.3984375 10.28125 C-6.39070313 9.5078125 -6.38296875 8.734375 -6.375 7.9375 C-6.38273437 7.1640625 -6.39046875 6.390625 -6.3984375 5.59375 C-5.66870935 1.64463293 -3.84248507 0.56036241 0 0 Z " transform="translate(274,321.5625)" style="fill: #6197C1;"/><path d="M0 0 C0.33 0.66 0.66 1.32 1 2 C2.65 2 4.3 2 6 2 C6.12375 2.969375 6.2475 3.93875 6.375 4.9375 C6.58125 5.948125 6.7875 6.95875 7 8 C7.66 8.33 8.32 8.66 9 9 C10 12 10 12 9.0625 14.1875 C8.711875 14.785625 8.36125 15.38375 8 16 C7.01 15.67 6.02 15.34 5 15 C4.34 15.66 3.68 16.32 3 17 C1.68 17 0.36 17 -1 17 C-2.73195294 12.34537648 -4.08944448 8.54203711 -2.0625 3.8125 C-1.5365625 2.9153125 -1.5365625 2.9153125 -1 2 C-0.67 1.34 -0.34 0.68 0 0 Z " transform="translate(292,224)" style="fill: #F1F5F9;"/><path d="M0 0 C0 0.66 0 1.32 0 2 C2.31 1.01 4.62 0.02 7 -1 C7 0.98 7 2.96 7 5 C5.33333333 5 3.66666667 5 2 5 C2 6.32 2 7.64 2 9 C0.68 8.67 -0.64 8.34 -2 8 C-1.34 7.67 -0.68 7.34 0 7 C-3.23861295 7 -5.09740189 7.6250851 -8 9 C-8.33 9.66 -8.66 10.32 -9 11 C-11.64860427 11.59355614 -14.29197322 11.74209269 -17 12 C-18 10 -18 10 -19 8 C-17.00045254 7.95745644 -14.99958364 7.95919217 -13 8 C-12.67 8.33 -12.34 8.66 -12 9 C-11.67 6.69 -11.34 4.38 -11 2 C-8.69 2.33 -6.38 2.66 -4 3 C-4.33 2.01 -4.66 1.02 -5 0 C-3 -1 -3 -1 0 0 Z " transform="translate(231,260)" style="fill: #DEE9F2;"/><path d="M0 0 C6 0 6 0 8 2 C8.30078125 4.49609375 8.30078125 4.49609375 8.3125 7.4375 C8.33763672 8.88962891 8.33763672 8.88962891 8.36328125 10.37109375 C8 13 8 13 6.79296875 14.84765625 C5 16 5 16 0 16 C0 10.72 0 5.44 0 0 Z " transform="translate(301,145)" style="fill: #0C5FA0;"/><path d="M0 0 C0.33 0.66 0.66 1.32 1 2 C1.99 2.33 2.98 2.66 4 3 C3.67 3.99 3.34 4.98 3 6 C4.32 5.67 5.64 5.34 7 5 C7.99 6.485 7.99 6.485 9 8 C9.66 8 10.32 8 11 8 C11 9.32 11 10.64 11 12 C10.01 12.33 9.02 12.66 8 13 C8.33 14.32 8.66 15.64 9 17 C8.01 17.33 7.02 17.66 6 18 C5.5875 17.195625 5.175 16.39125 4.75 15.5625 C3.26547669 12.85890282 3.26547669 12.85890282 0.8125 12.1875 C0.214375 12.125625 -0.38375 12.06375 -1 12 C-0.67 11.34 -0.34 10.68 0 10 C1.27191919 6.43862626 0.74869599 3.66029152 0 0 Z " transform="translate(238,270)" style="fill: #BDD3E5;"/><path d="M0 0 C3.3 0 6.6 0 10 0 C10 0.66 10 1.32 10 2 C7.36 2 4.72 2 2 2 C2 3.32 2 4.64 2 6 C4.31 6 6.62 6 9 6 C9 6.66 9 7.32 9 8 C6.69 8 4.38 8 2 8 C2 9.65 2 11.3 2 13 C4.64 13 7.28 13 10 13 C10 13.66 10 14.32 10 15 C6.7 15 3.4 15 0 15 C0 10.05 0 5.1 0 0 Z " transform="translate(191,322)" style="fill: #CADCEA;"/><path d="M0 0 C-0.01160156 0.67546875 -0.02320313 1.3509375 -0.03515625 2.046875 C-0.04417969 2.93890625 -0.05320312 3.8309375 -0.0625 4.75 C-0.07410156 5.63171875 -0.08570313 6.5134375 -0.09765625 7.421875 C-0.00801177 9.78848923 0.407448 11.72361275 1 14 C0.5625 16.0625 0.5625 16.0625 0 18 C0 18.99 0 19.98 0 21 C-2.4375 19.875 -2.4375 19.875 -5 18 C-5.6875 14.875 -5.6875 14.875 -6 12 C-6.66 11.67 -7.32 11.34 -8 11 C-7.01 11 -6.02 11 -5 11 C-4.67 12.65 -4.34 14.3 -4 16 C-3.34 15.67 -2.68 15.34 -2 15 C-2 12.36 -2 9.72 -2 7 C-2.99 6.67 -3.98 6.34 -5 6 C-5 5.01 -5 4.02 -5 3 C-5.99 2.67 -6.98 2.34 -8 2 C-7.01 1.67 -6.02 1.34 -5 1 C-3 0 -3 0 0 0 Z " transform="translate(302,258)" style="fill: #88B0D0;"/><path d="M0 0 C0.94875 0.04125 1.8975 0.0825 2.875 0.125 C2.875 1.115 2.875 2.105 2.875 3.125 C-0.095 2.63 -0.095 2.63 -3.125 2.125 C-2.795 3.115 -2.465 4.105 -2.125 5.125 C-1.135 5.57875 -0.145 6.0325 0.875 6.5 C3.875 8.125 3.875 8.125 4.875 10.6875 C4.875 13.125 4.875 13.125 2.875 15.125 C-0.625 15.4375 -0.625 15.4375 -4.125 15.125 C-4.785 14.135 -5.445 13.145 -6.125 12.125 C-3.485 12.125 -0.845 12.125 1.875 12.125 C1.875 11.465 1.875 10.805 1.875 10.125 C0.4209375 9.5371875 0.4209375 9.5371875 -1.0625 8.9375 C-4.125 7.125 -4.125 7.125 -5.125 4.5625 C-5.125 0.6090982 -3.77407543 0.15096302 0 0 Z " transform="translate(212.125,321.875)" style="fill: #D5E3EE;"/><path d="M0 0 C3.40312738 1.05875074 6.01353231 2.00902154 9 4 C9 4.66 9 5.32 9 6 C4.52941176 10 4.52941176 10 2 10 C1.67 10.66 1.34 11.32 1 12 C0.67 11.01 0.34 10.02 0 9 C-0.66 8.67 -1.32 8.34 -2 8 C-2 4.23312136 -1.76462683 3.08809695 0 0 Z " transform="translate(369,234)" style="fill: #367AB0;"/><path d="M0 0 C3 -0.3125 3 -0.3125 6 0 C6.66 0.66 7.32 1.32 8 2 C7.89834392 5.76127491 7.00920966 6.98989184 4.4375 9.8125 C3.633125 10.534375 2.82875 11.25625 2 12 C4.31 12.33 6.62 12.66 9 13 C9 13.66 9 14.32 9 15 C5.37 15 1.74 15 -2 15 C-0.49085782 11.98171563 0.48608326 10.26408245 2.625 7.875 C5.21229382 5.36453083 5.21229382 5.36453083 5 3 C2.69 3 0.38 3 -2 3 C-1.34 2.01 -0.68 1.02 0 0 Z " transform="translate(254,322)" style="fill: #D1E1ED;"/><path d="M0 0 C2.31 0.33 4.62 0.66 7 1 C6.50769231 7.4 6.50769231 7.4 3.9375 10.4375 C2.9784375 11.2109375 2.9784375 11.2109375 2 12 C4.97 12.495 4.97 12.495 8 13 C8 13.66 8 14.32 8 15 C4.7 15 1.4 15 -2 15 C0 11 0 11 2.0625 8.5 C3.86644927 6.17232353 4.57691542 4.8558209 5 2 C2.69 2.33 0.38 2.66 -2 3 C-1.34 2.01 -0.68 1.02 0 0 Z " transform="translate(302,322)" style="fill: #D5E3EE;"/><path d="M0 0 C2.31 0.33 4.62 0.66 7 1 C6.50769231 7.4 6.50769231 7.4 3.9375 10.4375 C2.9784375 11.2109375 2.9784375 11.2109375 2 12 C4.97 12.495 4.97 12.495 8 13 C8 13.66 8 14.32 8 15 C4.7 15 1.4 15 -2 15 C0 11 0 11 2.0625 8.5 C3.86644927 6.17232353 4.57691542 4.8558209 5 2 C2.69 2.33 0.38 2.66 -2 3 C-1.34 2.01 -0.68 1.02 0 0 Z " transform="translate(287,322)" style="fill: #D5E3EE;"/><path d="M0 0 C0.66 0 1.32 0 2 0 C2 0.66 2 1.32 2 2 C2.99 1.67 3.98 1.34 5 1 C5 1.66 5 2.32 5 3 C5.66 3 6.32 3 7 3 C6.814375 3.969375 6.62875 4.93875 6.4375 5.9375 C6.293125 6.948125 6.14875 7.95875 6 9 C6.33 9.33 6.66 9.66 7 10 C7.33 9.01 7.66 8.02 8 7 C8.33 8.32 8.66 9.64 9 11 C7.02 11.99 7.02 11.99 5 13 C3.4375 10.6875 3.4375 10.6875 2 8 C2.33 7.01 2.66 6.02 3 5 C2.01 4.67 1.02 4.34 0 4 C0 4.66 0 5.32 0 6 C-0.66 5.67 -1.32 5.34 -2 5 C-1.34 3.35 -0.68 1.7 0 0 Z " transform="translate(292,279)" style="fill: #70A0C7;"/><path d="M0 0 C3.96 0 7.92 0 12 0 C12 0.66 12 1.32 12 2 C10.35 2 8.7 2 7 2 C7 6.29 7 10.58 7 15 C6.34 15 5.68 15 5 15 C5 10.71 5 6.42 5 2 C3.35 2 1.7 2 0 2 C0 1.34 0 0.68 0 0 Z " transform="translate(221,322)" style="fill: #D4E3EE;"/><path d="M0 0 C0.82638376 2.89234315 1 4.88742431 1 8 C0.01 8.495 0.01 8.495 -1 9 C-1 9.66 -1 10.32 -1 11 C-2.32 11 -3.64 11 -5 11 C-5.33 11.66 -5.66 12.32 -6 13 C-6.33 11.68 -6.66 10.36 -7 9 C-5.68 8.01 -4.36 7.02 -3 6 C-3.99 5.34 -4.98 4.68 -6 4 C-5.67 3.34 -5.34 2.68 -5 2 C-3.68 2 -2.36 2 -1 2 C-0.67 1.34 -0.34 0.68 0 0 Z " transform="translate(374,261)" style="fill: #BCD2E5;"/><path d="M0 0 C0.99 0.66 1.98 1.32 3 2 C3.99 1.67 4.98 1.34 6 1 C6 2.65 6 4.3 6 6 C5.01 6 4.02 6 3 6 C2.34 7.32 1.68 8.64 1 10 C0.01 9.67 -0.98 9.34 -2 9 C-2 7.35 -2 5.7 -2 4 C-1.34 4 -0.68 4 0 4 C0 2.68 0 1.36 0 0 Z " transform="translate(216,234)" style="fill: #689BC4;"/><path d="M0 0 C0.33 0.66 0.66 1.32 1 2 C1.66 2.33 2.32 2.66 3 3 C4 6 4 6 3.0625 8.1875 C2.711875 8.785625 2.36125 9.38375 2 10 C1.01 9.67 0.02 9.34 -1 9 C-1.66 9.66 -2.32 10.32 -3 11 C-3.99 11 -4.98 11 -6 11 C-5 8 -5 8 -3 7 C-2.34444881 4.47266765 -2.34444881 4.47266765 -2 2 C-1.34 2 -0.68 2 0 2 C0 1.34 0 0.68 0 0 Z " transform="translate(298,230)" style="fill: #6096C1;"/><path d="M0 0 C1.32 0 2.64 0 4 0 C3.34 2.97 2.68 5.94 2 9 C-0.64 9.33 -3.28 9.66 -6 10 C-7 8 -7 8 -8 6 C-6.00045254 5.95745644 -3.99958364 5.95919217 -2 6 C-1.67 6.33 -1.34 6.66 -1 7 C-0.67 4.69 -0.34 2.38 0 0 Z " transform="translate(220,262)" style="fill: #94B8D5;"/><path d="M0 0 C0.66 0.33 1.32 0.66 2 1 C1.67 2.65 1.34 4.3 1 6 C1.66 6 2.32 6 3 6 C3.33 5.01 3.66 4.02 4 3 C5.32 3.33 6.64 3.66 8 4 C8 4.99 8 5.98 8 7 C7.34 7 6.68 7 6 7 C5.67 7.66 5.34 8.32 5 9 C1.9375 9.625 1.9375 9.625 -1 10 C-0.67 6.7 -0.34 3.4 0 0 Z " transform="translate(273,223)" style="fill: #BCD3E5;"/><path d="M0 0 C1 3 1 3 0 5 C0.28112064 7.00800456 0.61067967 9.01014051 1 11 C-0.65 10.67 -2.3 10.34 -4 10 C-5.09658936 6.71023192 -4.79953138 5.28696233 -4 2 C-2.68 2 -1.36 2 0 2 C0 1.34 0 0.68 0 0 Z " transform="translate(221,247)" style="fill: #86AFD0;"/><path d="M0 0 C0.33 0.66 0.66 1.32 1 2 C1.66 2 2.32 2 3 2 C3 4.64 3 7.28 3 10 C1.02 10 -0.96 10 -3 10 C-3 9.01 -3 8.02 -3 7 C-2.34 7 -1.68 7 -1 7 C-1.020625 6.030625 -1.04125 5.06125 -1.0625 4.0625 C-1 1 -1 1 0 0 Z " transform="translate(141,223)" style="fill: #73A3C8;"/><path d="M0 0 C0.99 0.66 1.98 1.32 3 2 C2.835 2.928125 2.67 3.85625 2.5 4.8125 C1.92251612 7.95621353 1.92251612 7.95621353 2 11 C-0.4375 9.875 -0.4375 9.875 -3 8 C-3.6875 4.875 -3.6875 4.875 -4 2 C-4.66 1.67 -5.32 1.34 -6 1 C-5.01 1 -4.02 1 -3 1 C-2.67 2.65 -2.34 4.3 -2 6 C-1.34 5.67 -0.68 5.34 0 5 C0 3.35 0 1.7 0 0 Z " transform="translate(300,268)" style="fill: #B0CBE0;"/><path d="M0 0 C1.125 3.75 1.125 3.75 0 6 C-1.32 6 -2.64 6 -4 6 C-4 7.32 -4 8.64 -4 10 C-5.32 9.67 -6.64 9.34 -8 9 C-7.34 8.67 -6.68 8.34 -6 8 C-6.66 7.67 -7.32 7.34 -8 7 C-8 6.34 -8 5.68 -8 5 C-5.52468811 2.87830409 -2.94956528 1.36944102 0 0 Z " transform="translate(237,259)" style="fill: #79A6CA;"/><path d="M0 0 C0.33 0.66 0.66 1.32 1 2 C1.99 2.33 2.98 2.66 4 3 C4.59732819 5.76264289 5 8.16032769 5 11 C4.34 11.66 3.68 12.32 3 13 C0.875 12.625 0.875 12.625 -1 12 C-0.67 11.34 -0.34 10.68 0 10 C1.27191919 6.43862626 0.74869599 3.66029152 0 0 Z " transform="translate(238,270)" style="fill: #72A2C8;"/><path d="M0 0 C1.2375153 3.71254591 1 7.120546 1 11 C0.34 10.34 -0.32 9.68 -1 9 C-2.32 9 -3.64 9 -5 9 C-4.67 7.02 -4.34 5.04 -4 3 C-3.01 2.67 -2.02 2.34 -1 2 C-0.67 1.34 -0.34 0.68 0 0 Z " transform="translate(377,247)" style="fill: #5B92BF;"/><path d="M0 0 C0.99 0 1.98 0 3 0 C3 3.63 3 7.26 3 11 C2.01 11 1.02 11 0 11 C0 7.37 0 3.74 0 0 Z " transform="translate(227,217)" style="fill: #3C7EB3;"/><path d="M0 0 C1.65 0 3.3 0 5 0 C3.68 0.33 2.36 0.66 1 1 C1 1.99 1 2.98 1 4 C2.32 4.33 3.64 4.66 5 5 C5.66 3.68 6.32 2.36 7 1 C7 4 7 4 6 7 C3.4375 8.1875 3.4375 8.1875 1 9 C-1.125 3.375 -1.125 3.375 0 0 Z " transform="translate(380,282)" style="fill: #518CBB;"/><path d="M0 0 C0.33 0.66 0.66 1.32 1 2 C2.65 2 4.3 2 6 2 C6.33 2.99 6.66 3.98 7 5 C3.86650268 6.04449911 3.01031744 5.93423645 0 5 C-0.33 5.99 -0.66 6.98 -1 8 C-1.125 2.25 -1.125 2.25 0 0 Z " transform="translate(292,224)" style="fill: #4986B8;"/><path d="M0 0 C3 -0.3125 3 -0.3125 6 0 C6.66 0.66 7.32 1.32 8 2 C7.625 4.625 7.625 4.625 7 7 C6.34 7 5.68 7 5 7 C5 5.68 5 4.36 5 3 C2.69 3 0.38 3 -2 3 C-1.34 2.01 -0.68 1.02 0 0 Z " transform="translate(254,322)" style="fill: #C7DAE9;"/><path d="M0 0 C1.0625 1.8125 1.0625 1.8125 2 4 C1.67 4.99 1.34 5.98 1 7 C-0.65 7.33 -2.3 7.66 -4 8 C-4 4 -4 4 -2 1.75 C-1.01 0.88375 -1.01 0.88375 0 0 Z " transform="translate(370,226)" style="fill: #4B88B9;"/><path d="M0 0 C1.10844919 3.32534757 0.84454356 5.62182575 0 9 C-0.99 8.67 -1.98 8.34 -3 8 C-4.1875 5.4375 -4.1875 5.4375 -5 3 C-2.25 0 -2.25 0 0 0 Z " transform="translate(221,240)" style="fill: #CEDEEC;"/><path d="M0 0 C1.4540625 0.0309375 1.4540625 0.0309375 2.9375 0.0625 C2.9375 1.0525 2.9375 2.0425 2.9375 3.0625 C-0.0325 2.5675 -0.0325 2.5675 -3.0625 2.0625 C-2.7325 3.3825 -2.4025 4.7025 -2.0625 6.0625 C-3.0525 6.0625 -4.0425 6.0625 -5.0625 6.0625 C-3.98897059 0.08140756 -3.98897059 0.08140756 0 0 Z " transform="translate(212.0625,321.9375)" style="fill: #DEE9F2;"/><path d="M0 0 C0.66 0 1.32 0 2 0 C2 0.66 2 1.32 2 2 C2.99 1.67 3.98 1.34 5 1 C5 1.66 5 2.32 5 3 C5.66 3 6.32 3 7 3 C6.67 3.66 6.34 4.32 6 5 C3.03 4.505 3.03 4.505 0 4 C0 4.66 0 5.32 0 6 C-0.66 5.67 -1.32 5.34 -2 5 C-1.34 3.35 -0.68 1.7 0 0 Z " transform="translate(292,279)" style="fill: #AEC9DF;"/><path d="M0 0 C1.32 0.66 2.64 1.32 4 2 C3.67 3.98 3.34 5.96 3 8 C1.68 7.34 0.36 6.68 -1 6 C-0.67 4.02 -0.34 2.04 0 0 Z " transform="translate(160,271)" style="fill: #AAC7DE;"/><path d="M0 0 C0.66 0 1.32 0 2 0 C2.33 1.98 2.66 3.96 3 6 C2.195625 6.268125 1.39125 6.53625 0.5625 6.8125 C-0.283125 7.204375 -1.12875 7.59625 -2 8 C-2.33 8.99 -2.66 9.98 -3 11 C-3.66 11 -4.32 11 -5 11 C-4.34 9.02 -3.68 7.04 -3 5 C-2.01 5 -1.02 5 0 5 C-0.33 4.01 -0.66 3.02 -1 2 C-0.67 1.34 -0.34 0.68 0 0 Z " transform="translate(376,265)" style="fill: #CCDDEB;"/><path d="M0 0 C1.0625 1.8125 1.0625 1.8125 2 4 C1 7 1 7 -1.0625 8.1875 C-1.701875 8.455625 -2.34125 8.72375 -3 9 C-3.33 6.36 -3.66 3.72 -4 1 C-3.01 2.485 -3.01 2.485 -2 4 C-1.34 2.68 -0.68 1.36 0 0 Z " transform="translate(293,247)" style="fill: #B5CEE2;"/><path d="M0 0 C1.98 0.66 3.96 1.32 6 2 C5.01 3.32 4.02 4.64 3 6 C0.525 5.01 0.525 5.01 -2 4 C-1.34 2.68 -0.68 1.36 0 0 Z " transform="translate(369,234)" style="fill: #689BC4;"/><path d="M0 0 C0.99 0 1.98 0 3 0 C3.99 1.98 4.98 3.96 6 6 C4.68 6 3.36 6 2 6 C1.67 5.34 1.34 4.68 1 4 C0.01 4.495 0.01 4.495 -1 5 C-0.67 3.35 -0.34 1.7 0 0 Z " transform="translate(213,253)" style="fill: #CEDEEC;"/><path d="M0 0 C0.99 0 1.98 0 3 0 C3 2.64 3 5.28 3 8 C2.01 7.67 1.02 7.34 0 7 C0 4.69 0 2.38 0 0 Z " transform="translate(273,237)" style="fill: #4383B6;"/><path d="M0 0 C0.33 1.32 0.66 2.64 1 4 C-0.32 4 -1.64 4 -3 4 C-3.33 4.66 -3.66 5.32 -4 6 C-4.625 4.125 -4.625 4.125 -5 2 C-3 0 -3 0 0 0 Z " transform="translate(372,268)" style="fill: #77A5CA;"/><path d="M0 0 C1.98 0.495 1.98 0.495 4 1 C3.34 2.98 2.68 4.96 2 7 C1.01 6.34 0.02 5.68 -1 5 C-0.67 3.35 -0.34 1.7 0 0 Z " transform="translate(292,283)" style="fill: #D8E5F0;"/><path d="M0 0 C0.66 0 1.32 0 2 0 C2.33 2.97 2.66 5.94 3 9 C2.01 8.67 1.02 8.34 0 8 C0 5.36 0 2.72 0 0 Z " transform="translate(287,247)" style="fill: #1967A5;"/><path d="M0 0 C0.33 0.66 0.66 1.32 1 2 C1.99 2 2.98 2 4 2 C3.67 3.65 3.34 5.3 3 7 C2.01 7.33 1.02 7.66 0 8 C0 5.36 0 2.72 0 0 Z " transform="translate(211,234)" style="fill: #C2D7E7;"/><path d="M0 0 C0.66 0.33 1.32 0.66 2 1 C2 3.31 2 5.62 2 8 C0.68 8 -0.64 8 -2 8 C-1.33333333 5.33333333 -0.66666667 2.66666667 0 0 Z " transform="translate(388,281)" style="fill: #CCDDEB;"/><path d="M0 0 C1.98 0.495 1.98 0.495 4 1 C4 1.99 4 2.98 4 4 C3.34 4 2.68 4 2 4 C1.67 4.66 1.34 5.32 1 6 C0.34 5.34 -0.32 4.68 -1 4 C-0.625 1.875 -0.625 1.875 0 0 Z " transform="translate(277,226)" style="fill: #6699C3;"/><path d="M0 0 C1.9375 0.75 1.9375 0.75 4 2 C4.75 4.125 4.75 4.125 5 6 C3.68 6.33 2.36 6.66 1 7 C0.67 4.69 0.34 2.38 0 0 Z " transform="translate(163,214)" style="fill: #A2C2DB;"/><path d="M0 0 C1 3 1 3 0.0625 5.1875 C-0.4634375 6.0846875 -0.4634375 6.0846875 -1 7 C-1.99 6.67 -2.98 6.34 -4 6 C-4 4.68 -4 3.36 -4 2 C-2.68 2 -1.36 2 0 2 C0 1.34 0 0.68 0 0 Z " transform="translate(221,247)" style="fill: #558EBC;"/><path d="M0 0 C0.33 0.66 0.66 1.32 1 2 C1.66 2 2.32 2 3 2 C3.33 1.34 3.66 0.68 4 0 C4.625 1.875 4.625 1.875 5 4 C4.34 4.66 3.68 5.32 3 6 C2.01 5.67 1.02 5.34 0 5 C0 3.35 0 1.7 0 0 Z " transform="translate(214,238)" style="fill: #3479AF;"/><path d="M0 0 C0.33 0.99 0.66 1.98 1 3 C0.01 3.33 -0.98 3.66 -2 4 C-2.66 4.66 -3.32 5.32 -4 6 C-4.38218767 4.34385343 -4.71395102 2.67542976 -5 1 C-4 0 -4 0 0 0 Z " transform="translate(295,235)" style="fill: #ABC7DE;"/><path d="M0 0 C2.625 0.9375 2.625 0.9375 5 2 C4.01 2.99 3.02 3.98 2 5 C1.67 4.34 1.34 3.68 1 3 C0.01 3 -0.98 3 -2 3 C-2 2.34 -2 1.68 -2 1 C-1.34 0.67 -0.68 0.34 0 0 Z " transform="translate(297,223)" style="fill: #CEDEEC;"/><path d="M0 0 C1.65 0.99 3.3 1.98 5 3 C4.01 3.33 3.02 3.66 2 4 C1.67 4.99 1.34 5.98 1 7 C0.67 5.68 0.34 4.36 0 3 C-0.66 3 -1.32 3 -2 3 C-1 1 -1 1 0 0 Z " transform="translate(369,219)" style="fill: #C0D5E6;"/><path d="M0 0 C1 3 1 3 0 5 C-1.32 4.67 -2.64 4.34 -4 4 C-4 3.01 -4 2.02 -4 1 C-2.68 0.67 -1.36 0.34 0 0 Z " transform="translate(385,282)" style="fill: #D3E2ED;"/><path d="M0 0 C0.33 0.66 0.66 1.32 1 2 C1.66 2 2.32 2 3 2 C3 1.34 3 0.68 3 0 C3.99 0.33 4.98 0.66 6 1 C6 1.66 6 2.32 6 3 C4.35 3.66 2.7 4.32 1 5 C0.67 3.35 0.34 1.7 0 0 Z " transform="translate(378,245)" style="fill: #C1D6E7;"/><path d="M0 0 C0.33 0.99 0.66 1.98 1 3 C2.98 2.67 4.96 2.34 7 2 C6.67 2.66 6.34 3.32 6 4 C5.34 4 4.68 4 4 4 C3.67 4.99 3.34 5.98 3 7 C1.5 5.75 1.5 5.75 0 4 C0 2.68 0 1.36 0 0 Z " transform="translate(297,237)" style="fill: #C8DAE9;"/><path d="M0 0 C-0.66 1.65 -1.32 3.3 -2 5 C-3.32 4.34 -4.64 3.68 -6 3 C-3.375 0 -3.375 0 0 0 Z " transform="translate(266,236)" style="fill: #80ABCD;"/><path d="M0 0 C0.99 0.33 1.98 0.66 3 1 C2.67 1.99 2.34 2.98 2 4 C0.35 4 -1.3 4 -3 4 C-3 3.01 -3 2.02 -3 1 C-2.01 1.33 -1.02 1.66 0 2 C0 1.34 0 0.68 0 0 Z " transform="translate(141,229)" style="fill: #AEC9DF;"/></svg>